%TF.GenerationSoftware,KiCad,Pcbnew,7.0.8*%
%TF.CreationDate,2026-05-16T21:21:15-07:00*%
%TF.ProjectId,Lovers Rock,4c6f7665-7273-4205-926f-636b2e6b6963,rev?*%
%TF.SameCoordinates,Original*%
%TF.FileFunction,Copper,L2,Bot*%
%TF.FilePolarity,Positive*%
%FSLAX46Y46*%
G04 Gerber Fmt 4.6, Leading zero omitted, Abs format (unit mm)*
G04 Created by KiCad (PCBNEW 7.0.8) date 2026-05-16 21:21:15*
%MOMM*%
%LPD*%
G01*
G04 APERTURE LIST*
%TA.AperFunction,ComponentPad*%
%ADD10R,1.600000X1.600000*%
%TD*%
%TA.AperFunction,ComponentPad*%
%ADD11O,1.600000X1.600000*%
%TD*%
%TA.AperFunction,ComponentPad*%
%ADD12C,1.600000*%
%TD*%
%TA.AperFunction,ComponentPad*%
%ADD13C,3.000000*%
%TD*%
%TA.AperFunction,ComponentPad*%
%ADD14R,2.200000X2.200000*%
%TD*%
%TA.AperFunction,ComponentPad*%
%ADD15O,2.200000X2.200000*%
%TD*%
%TA.AperFunction,Conductor*%
%ADD16C,0.250000*%
%TD*%
G04 APERTURE END LIST*
D10*
%TO.P,D3,1,K*%
%TO.N,Dout*%
X130810000Y-68580000D03*
D11*
%TO.P,D3,2,A*%
%TO.N,Vref*%
X123190000Y-68580000D03*
%TD*%
D10*
%TO.P,U1,1*%
%TO.N,Bout*%
X88900000Y-87640000D03*
D11*
%TO.P,U1,2,-*%
X86360000Y-87640000D03*
%TO.P,U1,3,+*%
%TO.N,Net-(U1A-+)*%
X83820000Y-87640000D03*
%TO.P,U1,4,V-*%
%TO.N,GND*%
X81280000Y-87640000D03*
%TO.P,U1,5,+*%
%TO.N,ODin*%
X81280000Y-95260000D03*
%TO.P,U1,6,-*%
%TO.N,Net-(D1-K)*%
X83820000Y-95260000D03*
%TO.P,U1,7*%
%TO.N,ODout*%
X86360000Y-95260000D03*
%TO.P,U1,8,V+*%
%TO.N,+9V*%
X88900000Y-95260000D03*
%TD*%
D12*
%TO.P,C5,2*%
%TO.N,Net-(C5-Pad2)*%
X114300000Y-63580000D03*
%TO.P,C5,1*%
%TO.N,Din*%
X114300000Y-68580000D03*
%TD*%
%TO.P,C4,1*%
%TO.N,Net-(C4-Pad1)*%
X96560000Y-78740000D03*
%TO.P,C4,2*%
%TO.N,Net-(C4-Pad2)*%
X99060000Y-78740000D03*
%TD*%
%TO.P,C10,2*%
%TO.N,Net-(C10-Pad2)*%
X114300000Y-55960000D03*
%TO.P,C10,1*%
%TO.N,Vref*%
X114300000Y-60960000D03*
%TD*%
%TO.P,R7,1*%
%TO.N,Net-(C4-Pad2)*%
X96520000Y-73660000D03*
D11*
%TO.P,R7,2*%
%TO.N,Din*%
X104140000Y-73660000D03*
%TD*%
%TO.P,R6,2*%
%TO.N,Net-(C4-Pad1)*%
X97790000Y-83820000D03*
D12*
%TO.P,R6,1*%
%TO.N,ODout*%
X105410000Y-83820000D03*
%TD*%
D11*
%TO.P,R8,2*%
%TO.N,Vref*%
X130810000Y-73660000D03*
D12*
%TO.P,R8,1*%
%TO.N,Net-(U2A-+)*%
X123190000Y-73660000D03*
%TD*%
D11*
%TO.P,R15,2*%
%TO.N,Vout*%
X154940000Y-73660000D03*
D12*
%TO.P,R15,1*%
%TO.N,Vref*%
X147320000Y-73660000D03*
%TD*%
D11*
%TO.P,R14,2*%
%TO.N,Net-(C11-Pad2)*%
X147320000Y-91440000D03*
D12*
%TO.P,R14,1*%
%TO.N,Net-(U2B--)*%
X147320000Y-83820000D03*
%TD*%
D11*
%TO.P,R13,2*%
%TO.N,Net-(U2B--)*%
X142240000Y-83820000D03*
D12*
%TO.P,R13,1*%
%TO.N,Vref*%
X142240000Y-91440000D03*
%TD*%
D10*
%TO.P,U2,1*%
%TO.N,Net-(C5-Pad2)*%
X109220000Y-76200000D03*
D11*
%TO.P,U2,2,-*%
%TO.N,Din*%
X109220000Y-78740000D03*
%TO.P,U2,3,+*%
%TO.N,Net-(U2A-+)*%
X109220000Y-81280000D03*
%TO.P,U2,4,V-*%
%TO.N,GND*%
X109220000Y-83820000D03*
%TO.P,U2,5,+*%
%TO.N,Net-(U2B-+)*%
X116840000Y-83820000D03*
%TO.P,U2,6,-*%
%TO.N,Net-(U2B--)*%
X116840000Y-81280000D03*
%TO.P,U2,7*%
X116840000Y-78740000D03*
%TO.P,U2,8,V+*%
%TO.N,+9V*%
X116840000Y-76200000D03*
%TD*%
D10*
%TO.P,D2,1,K*%
%TO.N,ODout*%
X99060000Y-87630000D03*
D11*
%TO.P,D2,2,A*%
%TO.N,Net-(D1-K)*%
X99060000Y-95250000D03*
%TD*%
D10*
%TO.P,D1,1,K*%
%TO.N,Net-(D1-K)*%
X101600000Y-95250000D03*
D11*
%TO.P,D1,2,A*%
%TO.N,ODout*%
X101600000Y-87630000D03*
%TD*%
%TO.P,Rpull1,2*%
%TO.N,Input*%
X81280000Y-80010000D03*
D12*
%TO.P,Rpull1,1*%
%TO.N,GND*%
X81280000Y-72390000D03*
%TD*%
%TO.P,R18,1*%
%TO.N,GND*%
X119380000Y-59690000D03*
D11*
%TO.P,R18,2*%
%TO.N,Vref*%
X119380000Y-52070000D03*
%TD*%
D12*
%TO.P,R17,1*%
%TO.N,Vref*%
X114300000Y-45720000D03*
D11*
%TO.P,R17,2*%
%TO.N,+9V*%
X114300000Y-53340000D03*
%TD*%
D12*
%TO.P,R16,1*%
%TO.N,TwinT*%
X142240000Y-78740000D03*
D11*
%TO.P,R16,2*%
%TO.N,Net-(R16-Pad2)*%
X149860000Y-78740000D03*
%TD*%
%TO.P,R12,2*%
%TO.N,Net-(C6-Pad2)*%
X121920000Y-88900000D03*
D12*
%TO.P,R12,1*%
%TO.N,Vref*%
X129540000Y-88900000D03*
%TD*%
D11*
%TO.P,R11,2*%
%TO.N,TwinT*%
X139700000Y-78740000D03*
D12*
%TO.P,R11,1*%
%TO.N,Net-(C8-Pad2)*%
X132080000Y-78740000D03*
%TD*%
%TO.P,R10,1*%
%TO.N,Dout*%
X121920000Y-78740000D03*
D11*
%TO.P,R10,2*%
%TO.N,Net-(C8-Pad2)*%
X129540000Y-78740000D03*
%TD*%
D12*
%TO.P,R9,1*%
%TO.N,Net-(C5-Pad2)*%
X123190000Y-60960000D03*
D11*
%TO.P,R9,2*%
%TO.N,Dout*%
X130810000Y-60960000D03*
%TD*%
D12*
%TO.P,R5,1*%
%TO.N,Net-(C3-Pad2)*%
X116840000Y-87630000D03*
D11*
%TO.P,R5,2*%
%TO.N,Net-(D1-K)*%
X116840000Y-95250000D03*
%TD*%
D12*
%TO.P,R4,1*%
%TO.N,Net-(D1-K)*%
X106680000Y-95250000D03*
D11*
%TO.P,R4,2*%
%TO.N,Net-(R4-Pad2)*%
X106680000Y-87630000D03*
%TD*%
D12*
%TO.P,R3,1*%
%TO.N,Bout*%
X86360000Y-83820000D03*
D11*
%TO.P,R3,2*%
%TO.N,Net-(C1-Pad1)*%
X93980000Y-83820000D03*
%TD*%
D12*
%TO.P,R2,1*%
%TO.N,Net-(U1A-+)*%
X86360000Y-80010000D03*
D11*
%TO.P,R2,2*%
%TO.N,GND*%
X86360000Y-72390000D03*
%TD*%
D12*
%TO.P,R1,1*%
%TO.N,+9V*%
X91440000Y-72390000D03*
D11*
%TO.P,R1,2*%
%TO.N,Net-(U1A-+)*%
X91440000Y-80010000D03*
%TD*%
D13*
%TO.P,J2,TN*%
%TO.N,unconnected-(J2-PadTN)*%
X145465000Y-69075000D03*
%TO.P,J2,T*%
%TO.N,Vout*%
X145465000Y-52845000D03*
%TO.P,J2,SN*%
%TO.N,unconnected-(J2-PadSN)*%
X158165000Y-69075000D03*
%TO.P,J2,S*%
%TO.N,GND*%
X158165000Y-52845000D03*
%TO.P,J2,RN*%
%TO.N,unconnected-(J2-PadRN)*%
X151815000Y-69075000D03*
%TO.P,J2,R*%
%TO.N,unconnected-(J2-PadR)*%
X151815000Y-52845000D03*
%TD*%
%TO.P,J1,R*%
%TO.N,unconnected-(J1-PadR)*%
X86945000Y-69075000D03*
%TO.P,J1,RN*%
%TO.N,unconnected-(J1-PadRN)*%
X86945000Y-52845000D03*
%TO.P,J1,S*%
%TO.N,GND*%
X80595000Y-69075000D03*
%TO.P,J1,SN*%
%TO.N,unconnected-(J1-PadSN)*%
X80595000Y-52845000D03*
%TO.P,J1,T*%
%TO.N,Input*%
X93295000Y-69075000D03*
%TO.P,J1,TN*%
%TO.N,unconnected-(J1-PadTN)*%
X93295000Y-52845000D03*
%TD*%
D14*
%TO.P,D5,1,K*%
%TO.N,+9V*%
X119380000Y-48260000D03*
D15*
%TO.P,D5,2,A*%
%TO.N,Net-(BT1-+)*%
X129540000Y-48260000D03*
%TD*%
D10*
%TO.P,D4,1,K*%
%TO.N,Vref*%
X123190000Y-66040000D03*
D11*
%TO.P,D4,2,A*%
%TO.N,Dout*%
X130810000Y-66040000D03*
%TD*%
D12*
%TO.P,Cin1,1*%
%TO.N,Input*%
X81280000Y-83820000D03*
%TO.P,Cin1,2*%
%TO.N,Net-(U1A-+)*%
X83780000Y-83820000D03*
%TD*%
D10*
%TO.P,C14,1*%
%TO.N,GND*%
X106680000Y-53380000D03*
D12*
%TO.P,C14,2*%
%TO.N,+9V*%
X106680000Y-55880000D03*
%TD*%
%TO.P,C13,1*%
%TO.N,GND*%
X134620000Y-55840000D03*
%TO.P,C13,2*%
%TO.N,Vref*%
X134620000Y-53340000D03*
%TD*%
D10*
%TO.P,C12,1*%
%TO.N,GND*%
X127000000Y-55880000D03*
D12*
%TO.P,C12,2*%
%TO.N,Vref*%
X127000000Y-53380000D03*
%TD*%
D10*
%TO.P,C11,1*%
%TO.N,Vout*%
X154940000Y-86360000D03*
D12*
%TO.P,C11,2*%
%TO.N,Net-(C11-Pad2)*%
X152440000Y-86360000D03*
%TD*%
D10*
%TO.P,C9,1*%
%TO.N,GND*%
X106680000Y-63540000D03*
D12*
%TO.P,C9,2*%
%TO.N,+9V*%
X106680000Y-66040000D03*
%TD*%
%TO.P,C8,1*%
%TO.N,Vref*%
X132160000Y-88900000D03*
%TO.P,C8,2*%
%TO.N,Net-(C8-Pad2)*%
X137160000Y-88900000D03*
%TD*%
%TO.P,C7,1*%
%TO.N,Net-(C6-Pad2)*%
X132160000Y-83820000D03*
%TO.P,C7,2*%
%TO.N,TwinT*%
X137160000Y-83820000D03*
%TD*%
%TO.P,C6,1*%
%TO.N,Dout*%
X121920000Y-83820000D03*
%TO.P,C6,2*%
%TO.N,Net-(C6-Pad2)*%
X126920000Y-83820000D03*
%TD*%
%TO.P,C3,1*%
%TO.N,Vref*%
X119380000Y-68540000D03*
%TO.P,C3,2*%
%TO.N,Net-(C3-Pad2)*%
X119380000Y-66040000D03*
%TD*%
%TO.P,C2,1*%
%TO.N,Net-(D1-K)*%
X111760000Y-93940000D03*
%TO.P,C2,2*%
%TO.N,ODout*%
X111760000Y-91440000D03*
%TD*%
%TO.P,C1,1*%
%TO.N,Net-(C1-Pad1)*%
X93980000Y-93980000D03*
%TO.P,C1,2*%
%TO.N,ODin*%
X93980000Y-91480000D03*
%TD*%
D16*
%TO.N,Net-(C6-Pad2)*%
X126920000Y-83820000D02*
X132160000Y-83820000D01*
%TO.N,GND*%
X155170000Y-55840000D02*
X158165000Y-52845000D01*
X134620000Y-55840000D02*
X155170000Y-55840000D01*
X134580000Y-55880000D02*
X134620000Y-55840000D01*
X127000000Y-55880000D02*
X134580000Y-55880000D01*
%TO.N,Vref*%
X147320000Y-73660000D02*
X130810000Y-73660000D01*
%TO.N,TwinT*%
X139700000Y-78740000D02*
X142240000Y-78740000D01*
%TO.N,Net-(C8-Pad2)*%
X132080000Y-78740000D02*
X129540000Y-78740000D01*
%TO.N,Vref*%
X134700000Y-91440000D02*
X142240000Y-91440000D01*
X132160000Y-88900000D02*
X134700000Y-91440000D01*
X129540000Y-88900000D02*
X132160000Y-88900000D01*
%TO.N,Dout*%
X121920000Y-77470000D02*
X130810000Y-68580000D01*
X121920000Y-78740000D02*
X121920000Y-77470000D01*
%TO.N,Net-(U2B--)*%
X116840000Y-81280000D02*
X139700000Y-81280000D01*
X139700000Y-81280000D02*
X142240000Y-83820000D01*
X142240000Y-83820000D02*
X147320000Y-83820000D01*
%TO.N,Net-(U2A-+)*%
X112885000Y-77615000D02*
X119235000Y-77615000D01*
X119235000Y-77615000D02*
X123190000Y-73660000D01*
X109220000Y-81280000D02*
X112885000Y-77615000D01*
%TO.N,Vref*%
X123190000Y-68580000D02*
X125730000Y-68580000D01*
X127040000Y-53340000D02*
X127000000Y-53380000D01*
X134620000Y-53340000D02*
X127040000Y-53340000D01*
X125690000Y-52070000D02*
X127000000Y-53380000D01*
X119380000Y-52070000D02*
X125690000Y-52070000D01*
X123150000Y-68540000D02*
X123190000Y-68580000D01*
X119380000Y-68540000D02*
X123150000Y-68540000D01*
%TO.N,GND*%
X123190000Y-59690000D02*
X127000000Y-55880000D01*
X119380000Y-59690000D02*
X123190000Y-59690000D01*
X110530000Y-59690000D02*
X119380000Y-59690000D01*
X106680000Y-63540000D02*
X110530000Y-59690000D01*
%TO.N,Net-(C5-Pad2)*%
X114300000Y-63580000D02*
X120570000Y-63580000D01*
X120570000Y-63580000D02*
X123190000Y-60960000D01*
%TO.N,+9V*%
X106680000Y-66040000D02*
X116840000Y-76200000D01*
%TO.N,GND*%
X108095000Y-84945000D02*
X109220000Y-83820000D01*
X83975000Y-84945000D02*
X108095000Y-84945000D01*
X81280000Y-87640000D02*
X83975000Y-84945000D01*
%TO.N,Input*%
X92215000Y-69075000D02*
X93295000Y-69075000D01*
X81280000Y-80010000D02*
X92215000Y-69075000D01*
%TO.N,+9V*%
X100330000Y-72390000D02*
X106680000Y-66040000D01*
X91440000Y-72390000D02*
X100330000Y-72390000D01*
X114300000Y-53340000D02*
X119380000Y-48260000D01*
X111760000Y-55880000D02*
X114300000Y-53340000D01*
X106680000Y-55880000D02*
X111760000Y-55880000D01*
%TO.N,GND*%
X86130000Y-63540000D02*
X80595000Y-69075000D01*
X106680000Y-63540000D02*
X86130000Y-63540000D01*
%TO.N,ODout*%
X99060000Y-87630000D02*
X101600000Y-87630000D01*
%TO.N,Net-(D1-K)*%
X115530000Y-93940000D02*
X116840000Y-95250000D01*
X111760000Y-93940000D02*
X115530000Y-93940000D01*
%TO.N,ODout*%
X105410000Y-91440000D02*
X101600000Y-87630000D01*
X111760000Y-91440000D02*
X105410000Y-91440000D01*
%TO.N,Net-(D1-K)*%
X110450000Y-95250000D02*
X111760000Y-93940000D01*
X106680000Y-95250000D02*
X110450000Y-95250000D01*
X101600000Y-95250000D02*
X106680000Y-95250000D01*
X99060000Y-95250000D02*
X101600000Y-95250000D01*
%TO.N,ODout*%
X99060000Y-88900000D02*
X99060000Y-87630000D01*
X95105000Y-92855000D02*
X99060000Y-88900000D01*
X88765000Y-92855000D02*
X95105000Y-92855000D01*
X86360000Y-95260000D02*
X88765000Y-92855000D01*
%TO.N,Net-(D1-K)*%
X97790000Y-95250000D02*
X99060000Y-95250000D01*
X96520000Y-96520000D02*
X97790000Y-95250000D01*
X85080000Y-96520000D02*
X96520000Y-96520000D01*
X83820000Y-95260000D02*
X85080000Y-96520000D01*
%TO.N,ODin*%
X85060000Y-91480000D02*
X93980000Y-91480000D01*
X81280000Y-95260000D02*
X85060000Y-91480000D01*
%TO.N,Net-(U1A-+)*%
X91440000Y-80010000D02*
X86360000Y-80010000D01*
%TO.N,Bout*%
X86360000Y-87640000D02*
X88900000Y-87640000D01*
%TO.N,GND*%
X81280000Y-72390000D02*
X86360000Y-72390000D01*
%TD*%
M02*
